<svg width="68" height="68" viewBox="0 0 68 68" fill="none" xmlns="http://www.w3.org/2000/svg">
<path d="M34 40.4317L30.1467 36.8334C27.7534 34.6131 25.0457 32.7855 22.1251 31.4013C18.1798 29.5314 14.1667 32.8609 14.1667 37.2268V42.3878C14.1667 45.9042 16.7988 48.8138 20.1849 49.7626C23.5332 50.7009 26.7088 52.0334 29.6591 53.7044C32.3372 55.2213 35.6628 55.2213 38.3409 53.7044C41.2912 52.0334 44.4668 50.7009 47.8151 49.7626C51.2012 48.8138 53.8333 45.9042 53.8333 42.3878V37.2205C53.8333 32.8566 49.8228 29.5261 45.8807 31.3977C42.9334 32.7971 40.235 34.636 37.8533 36.8334M53.8333 23.0917C56.9382 22.614 59.5 25.2134 59.5 28.3548V46.8334C59.5 50.6994 56.3388 53.7638 52.5392 54.4769C47.6509 55.3943 43.1191 57.2607 39.1135 59.8702C36.044 61.8697 31.956 61.8697 28.8865 59.8702C24.8809 57.2607 20.3491 55.3943 15.4608 54.4769C11.6612 53.7638 8.5 50.6994 8.5 46.8334V28.3548C8.5 25.2133 11.0618 22.614 14.1667 23.0917C19.5472 23.9118 24.5324 25.8756 28.8929 28.7141C31.9591 30.71 36.0409 30.71 39.1071 28.7141C43.4676 25.8756 48.4528 23.9118 53.8333 23.0917ZM34 17C34.765 17 35.4167 16.7167 36.0117 16.1784C36.55 15.5834 36.8333 14.9317 36.8333 14.1667C36.8333 13.4017 36.55 12.75 36.0117 12.155C35.4167 11.645 34.765 11.3334 34 11.3334C33.4145 11.3334 32.8955 11.5159 32.4174 11.8302C32.1178 12.0271 31.8603 12.2846 31.6651 12.5852C31.3498 13.0706 31.1667 13.602 31.1667 14.1667C31.1667 14.9034 31.4783 15.5834 31.9883 16.1784C32.5833 16.7167 33.2633 17 34 17ZM40.0067 20.1734C38.4136 21.7664 36.2529 22.6614 34 22.6614C31.7471 22.6614 29.5864 21.7664 27.9933 20.1734C26.4003 18.5803 25.5053 16.4196 25.5053 14.1667C25.5053 11.9138 26.4003 9.75311 27.9933 8.16004C28.7821 7.37123 29.7186 6.74552 30.7492 6.31862C31.7798 5.89172 32.8845 5.672 34 5.672C35.1155 5.672 36.2202 5.89172 37.2508 6.31862C38.2814 6.74552 39.2179 7.37123 40.0067 8.16004C40.7955 8.94885 41.4212 9.8853 41.8481 10.9159C42.275 11.9465 42.4947 13.0512 42.4947 14.1667C42.4947 15.2822 42.275 16.3869 41.8481 17.4175C41.4212 18.4481 40.7955 19.3846 40.0067 20.1734Z" fill="#593122"/>
</svg>
